<svg viewBox="0 0 89.37 89.37" xmlns="http://www.w3.org/2000/svg">
  <path fill="#ffffff" d="M44.92,27.61c-1.89-1.89-4.41-2.94-7.08-2.94H15.07v20.04h22.76c3.31,0,6.4-1.63,8.27-4.37,1.14-1.67,1.75-3.62,1.75-5.65,0-2.68-1.04-5.19-2.94-7.09ZM39.23,38.39c-.45.17-.92.26-1.4.26h-16.69v-7.91h16.69c2.18,0,3.95,1.77,3.95,3.95,0,1.63-1.03,3.11-2.55,3.7Z"/>
  <path fill="#ffffff" d="M81.35,62.67h-1.31l-19.79-.02-3.64-4.97-1.09-1.49h13.08s-16.6-22.63-16.6-22.63c-.17-.22-.39-.26-.51-.26s-.34.04-.51.26l-1.66,2.27c.04-.37.06-.75.06-1.14,0-2.49-.78-4.85-2.23-6.82l1.18-1.6c.74-1.02,1.9-1.6,3.16-1.6h0c1.27,0,2.42.58,3.17,1.61l.39.53,25.54,34.82.77,1.05Z"/>
  <path fill="#ffffff" d="M44.68,0C20.05,0,0,20.05,0,44.68s20.05,44.69,44.68,44.69,44.69-20.05,44.69-44.69S69.32,0,44.68,0ZM44.68,82.57c-13.83,0-26.74-7.76-33.33-19.89h30.81c4.06,0,7.67-1.97,9.89-4.98.35-.47.66-.97.94-1.49.88-1.66,1.38-3.54,1.38-5.54,0-4.43-2.46-8.46-6.36-10.55-.2.37-.41.74-.66,1.09-1.18,1.72-2.78,3.07-4.62,3.93,2.88.28,5.1,2.66,5.1,5.53,0,3.06-2.54,5.56-5.67,5.56H8.61c-1.2-3.74-1.81-7.61-1.81-11.54,0-6.64,1.71-12.89,4.73-18.32.61-1.1,1.27-2.17,1.99-3.21C20.37,13.28,31.78,6.8,44.68,6.8c20.89,0,37.89,16.99,37.89,37.88,0,6.09-1.45,11.85-4.01,16.95-.17.35-.35.7-.55,1.05-6.41,11.84-18.95,19.89-33.33,19.89Z"/>
</svg>
